<?xml version="1.0" encoding="UTF-8" standalone="no"?>
<!-- Generator: Adobe Illustrator 16.0.0, SVG Export Plug-In . SVG Version: 6.00 Build 0)  -->

<svg
   xmlns:dc="http://purl.org/dc/elements/1.1/"
   xmlns:cc="http://creativecommons.org/ns#"
   xmlns:rdf="http://www.w3.org/1999/02/22-rdf-syntax-ns#"
   xmlns:svg="http://www.w3.org/2000/svg"
   xmlns="http://www.w3.org/2000/svg"
   xmlns:sodipodi="http://sodipodi.sourceforge.net/DTD/sodipodi-0.dtd"
   xmlns:inkscape="http://www.inkscape.org/namespaces/inkscape"
   version="1.1"
   id="Capa_1"
   x="0px"
   y="0px"
   width="561px"
   height="561px"
   viewBox="0 0 561 561"
   style="enable-background:new 0 0 561 561;"
   xml:space="preserve"
   sodipodi:docname="not-visibility-button.svg"
   inkscape:version="0.92.4 (5da689c313, 2019-01-14)"><metadata
   id="metadata92"><rdf:RDF><cc:Work
       rdf:about=""><dc:format>image/svg+xml</dc:format><dc:type
         rdf:resource="http://purl.org/dc/dcmitype/StillImage" /><dc:title></dc:title></cc:Work></rdf:RDF></metadata><defs
   id="defs90" /><sodipodi:namedview
   pagecolor="#ffffff"
   bordercolor="#666666"
   borderopacity="1"
   objecttolerance="10"
   gridtolerance="10"
   guidetolerance="10"
   inkscape:pageopacity="0"
   inkscape:pageshadow="2"
   inkscape:window-width="1366"
   inkscape:window-height="745"
   id="namedview88"
   showgrid="false"
   inkscape:zoom="0.5285205"
   inkscape:cx="148.1391"
   inkscape:cy="482.17072"
   inkscape:window-x="-8"
   inkscape:window-y="-8"
   inkscape:window-maximized="1"
   inkscape:current-layer="Capa_1" />
<g
   id="g55">
	<g
   id="visibility">
		<path
   d="M280.5,89.25C153,89.25,43.35,168.3,0,280.5c43.35,112.2,153,191.25,280.5,191.25S517.65,392.7,561,280.5    C517.65,168.3,408,89.25,280.5,89.25z M280.5,408C209.1,408,153,351.9,153,280.5c0-71.4,56.1-127.5,127.5-127.5    c71.4,0,127.5,56.1,127.5,127.5C408,351.9,351.9,408,280.5,408z M280.5,204c-43.35,0-76.5,33.15-76.5,76.5    c0,43.35,33.15,76.5,76.5,76.5c43.35,0,76.5-33.15,76.5-76.5C357,237.15,323.85,204,280.5,204z"
   id="path52" />
	</g>
</g>
<g
   id="g57">
</g>
<g
   id="g59">
</g>
<g
   id="g61">
</g>
<g
   id="g63">
</g>
<g
   id="g65">
</g>
<g
   id="g67">
</g>
<g
   id="g69">
</g>
<g
   id="g71">
</g>
<g
   id="g73">
</g>
<g
   id="g75">
</g>
<g
   id="g77">
</g>
<g
   id="g79">
</g>
<g
   id="g81">
</g>
<g
   id="g83">
</g>
<g
   id="g85">
</g>
<rect
   style="opacity:1;fill:#000000;fill-opacity:1;stroke:none;stroke-width:1.24346864;stroke-miterlimit:4;stroke-dasharray:none;stroke-opacity:1"
   id="rect3799"
   width="713.42712"
   height="74.605415"
   x="-357.36456"
   y="360.72076"
   transform="matrix(0.70329033,-0.71090275,0.70944784,0.70475794,0,0)" /></svg>